<?xml version="1.0" standalone="no"?>
<!DOCTYPE svg PUBLIC "-//W3C//DTD SVG 20010904//EN"
 "http://www.w3.org/TR/2001/REC-SVG-20010904/DTD/svg10.dtd">
<svg version="1.0" xmlns="http://www.w3.org/2000/svg"
 width="336.000000pt" height="84.000000pt" viewBox="0 0 336.000000 84.000000"
 preserveAspectRatio="xMidYMid meet">

<g transform="translate(0.000000,84.000000) scale(0.100000,-0.100000)"
fill="#000000" stroke="none">
<path d="M60 321 l0 -241 50 0 50 0 0 190 0 190 -50 51 -50 51 0 -241z"/>
<path d="M60 693 l0 -68 155 -155 156 -155 97 99 97 100 3 -217 2 -217 50 0
50 0 0 342 0 343 -152 -152 -153 -152 -135 137 c-181 185 -170 179 -170 95z"/>
<path d="M770 420 l0 -340 45 0 45 0 0 340 0 340 -45 0 -45 0 0 -340z"/>
<path d="M962 713 l3 -48 202 -5 c196 -5 202 -6 227 -29 39 -37 36 -93 -6
-132 l-32 -29 -143 0 -143 0 0 70 0 70 -55 0 -55 0 0 -265 0 -265 230 0 c215
0 233 1 276 22 48 22 82 65 105 130 18 52 -8 136 -57 180 -22 20 -31 35 -25
42 5 6 16 35 24 64 14 47 14 57 1 104 -17 54 -65 111 -110 129 -14 5 -120 9
-235 9 l-210 0 3 -47z m467 -359 c53 -37 56 -101 9 -151 -21 -22 -28 -23 -195
-23 l-173 0 0 95 0 95 168 0 c139 0 172 -3 191 -16z"/>
<path d="M1709 330 l-137 -250 67 0 66 0 80 147 c44 81 90 165 103 187 12 22
22 50 22 61 -1 23 -41 97 -56 102 -5 1 -70 -110 -145 -247z"/>
<path d="M1921 714 c-17 -27 -31 -55 -31 -63 0 -14 27 -66 197 -371 l108 -195
68 -3 68 -3 -28 51 c-15 28 -42 77 -60 108 -41 73 -43 76 -150 272 -50 91
-102 185 -116 209 l-25 44 -31 -49z"/>
<path d="M2848 742 c-92 -34 -174 -117 -204 -206 -12 -34 -15 -72 -12 -134 3
-73 9 -96 33 -141 64 -118 169 -181 300 -181 151 0 272 86 325 231 57 155 -24
346 -177 420 -64 31 -196 37 -265 11z m187 -93 c90 -23 175 -132 175 -225 0
-49 -37 -139 -73 -174 -124 -124 -330 -77 -398 92 -24 58 -23 99 3 161 52 125
161 179 293 146z"/>
<path d="M2430 355 l0 -275 45 0 45 0 0 275 0 275 -45 0 -45 0 0 -275z"/>
<path d="M2430 715 c0 -35 0 -35 45 -35 45 0 45 0 45 35 0 35 0 35 -45 35 -45
0 -45 0 -45 -35z"/>
</g>
</svg>
